# xmcd
#
# Track frame offsets:
#	182
#	10650
#	20795
#	35315
#	49885
#	59792
#	75395
#	88605
#	100257
#	111060
#	126852
#
# Disc length: 1849 seconds
#
# Revision: 2
# Processed by: cddbd v1.5.2PL0 Copyright (c) Steve Scherf et al.
# Submitted via: EasyCDDAExtractor 15.3.0.1
#
DISCID=8807370b
DTITLE=Lissette - Navidad
DYEAR=1968
DGENRE=Latin
TTITLE0=Alegria, Alegria
TTITLE1=Rin Rin
TTITLE2=El Tamborilero
TTITLE3=Arbolito
TTITLE4=Campanitas Verdes
TTITLE5=La Virgen Lava Pañales
TTITLE6=Cascabel
TTITLE7=Si Me Dan Pasteles
TTITLE8=Rodolfo
TTITLE9=Blanca Navidad
TTITLE10=Descarga Navideña
EXTD=
EXTT0=
EXTT1=
EXTT2=
EXTT3=
EXTT4=
EXTT5=
EXTT6=
EXTT7=
EXTT8=
EXTT9=
EXTT10=
PLAYORDER=
